<svg id="IconSprite" xmlns="http://www.w3.org/2000/svg" style="display:none;">
  <symbol id="actor" viewBox="0 0 44 30">
    <path d="M28.95,13.64a11.092,11.092,0,0,0-.6-2.955A6.762,6.762,0,0,0,22.46,6.03C22.306,6.013,22.153,6,22,6s-.306.013-.46.03a6.762,6.762,0,0,0-5.887,4.655,11.092,11.092,0,0,0-.6,2.955,9.852,9.852,0,0,0,.127,2.9,8.872,8.872,0,0,0,5.37,6.157,3.617,3.617,0,0,0,2.905,0,8.872,8.872,0,0,0,5.37-6.157A9.851,9.851,0,0,0,28.95,13.64ZM16.787,10.677c.137-.515.5-.678,1.047-.677Q19.917,10,22,10t4.166,0c.552,0,.91.162,1.047.677s.21,1.023.332,1.637a2.237,2.237,0,0,1-.619-.068,2.586,2.586,0,0,0-2.035-.09,8.056,8.056,0,0,1-5.784,0,2.586,2.586,0,0,0-2.035.09,2.238,2.238,0,0,1-.619.068C16.577,11.7,16.653,11.181,16.787,10.677Zm9.135,3.758a1.646,1.646,0,0,1-2.738.028A1.635,1.635,0,0,1,25.922,14.435Zm-5.106.028a1.646,1.646,0,0,1-2.738-.028A1.635,1.635,0,0,1,20.816,14.463Zm6.8,1.867a7.2,7.2,0,0,1-4.579,5.179,2.916,2.916,0,0,1-2.077,0,7.2,7.2,0,0,1-4.579-5.179.6.6,0,0,1,.065-.457c.1.12.208.24.314.36a3.774,3.774,0,0,0,2.688,1.251,1.558,1.558,0,0,0,1.339-.6c.209-.244.4-.5.631-.728a.7.7,0,0,1,1.164,0c.226.227.422.484.631.728a1.558,1.558,0,0,0,1.339.6,3.774,3.774,0,0,0,2.688-1.251c.105-.119.209-.24.314-.36A.6.6,0,0,1,27.617,16.331Z"/>
  </symbol>
  <symbol id="campaign" viewBox="0 30 44 30">
    <path d="M18.122,47.578l-1.168-3.351-1.171,3.351H12l3.06,2.072L13.892,53l3.06-2.072L20.012,53l-1.168-3.35,3.06-2.072Zm5.77-6.156,3.06-2.071H23.17L22,36,20.83,39.351H17.048l3.06,2.071L18.94,44.773,22,42.7l3.06,2.071ZM32,47.578H28.218l-1.168-3.351-1.171,3.351H22.1l3.06,2.072L23.988,53l3.06-2.072L30.108,53,28.94,49.65Z"/>
  </symbol>
  <symbol id="coa" viewBox="0 60 44 30">
    <path d="M29,70H25V68a1,1,0,0,0-1-1H20a1,1,0,0,0-1,1v2H15a2.006,2.006,0,0,0-2,2v8a2.006,2.006,0,0,0,2,2H29a2.006,2.006,0,0,0,2-2V72A2.006,2.006,0,0,0,29,70Zm-9-2h4v2H20Zm6,9H23v3H21V77H18V75h3V72h2v3h3Z"/>
  </symbol>
  <symbol id="target" viewBox="0 90 44 30">
    <path d="M22,97a8,8,0,1,0,8,8A8.009,8.009,0,0,0,22,97Zm0,14.222A6.222,6.222,0,1,1,28.222,105,6.229,6.229,0,0,1,22,111.222Z"/>
    <path d="M22,100.556A4.444,4.444,0,1,0,26.444,105,4.45,4.45,0,0,0,22,100.556Zm0,7.111A2.667,2.667,0,1,1,24.667,105,2.67,2.67,0,0,1,22,107.667Z"/>
    <circle cx="22" cy="105" r="1"/>
  </symbol>
  <symbol id="feedback" viewBox="0 120 44 30">
    <path d="M17.512,133.818a3.682,3.682,0,0,0-.548.041,4.914,4.914,0,0,1,.5-.552,5.082,5.082,0,0,1,3.532-1.4V130A6.843,6.843,0,0,0,14,136.682l.016.477a3.5,3.5,0,1,0,3.5-3.341Z"/>
    <path d="M26.5,133.818a3.683,3.683,0,0,0-.548.041,4.909,4.909,0,0,1,.5-.552,5.082,5.082,0,0,1,3.532-1.4V130a6.843,6.843,0,0,0-6.993,6.682l.016.477a3.5,3.5,0,1,0,3.5-3.341Z"/>
  </symbol>
  <symbol id="incident" viewBox="0 150 44 30">
    <path d="M28.978,162.935a.438.438,0,0,0-.417-.3H23.866l-1.45-4.344a.44.44,0,0,0-.831,0l-1.45,4.344H15.441a.437.437,0,0,0-.416.3.422.422,0,0,0,.16.478l3.8,2.684-1.449,4.343a.423.423,0,0,0,.158.478.447.447,0,0,0,.515,0l3.8-2.685,3.8,2.685a.442.442,0,0,0,.256.082.451.451,0,0,0,.259-.082.423.423,0,0,0,.157-.478L25.023,166.1l3.8-2.684a.424.424,0,0,0,.161-.478Z"/>
  </symbol>
  <symbol id="indicator" viewBox="0 180 44 30">
    <path d="M27.25,200l-3.67-12.107c-.147-.491-.563-.893-.924-.893H21.344c-.361,0-.777.4-.924.893L16.75,200H15v2H29v-2Zm-6.487-10.187h2.474l.563,1.875H20.2Zm-1.125,3.75h4.724l.562,1.875H19.075Zm-1.688,5.625.562-1.875h6.974l.562,1.875Z"/>
  </symbol>
  <symbol id="judgment" viewBox="0 210 44 30">
    <path d="M20,224.5V224H14v.5a1.5,1.5,0,0,0,1.5,1.5h3A1.5,1.5,0,0,0,20,224.5Z"/>
    <path d="M24,224v.5a1.5,1.5,0,0,0,1.5,1.5h3a1.5,1.5,0,0,0,1.5-1.5V224Z"/>
    <path d="M23,219h3.15l-2.087,3.757a.5.5,0,0,0,.874.486L27,219.53l2.063,3.713a.5.5,0,0,0,.874-.486l-2.5-4.5A.5.5,0,0,0,27,218H23a1,1,0,0,0-2,0H17a.5.5,0,0,0-.437.257l-2.5,4.5a.5.5,0,0,0,.874.486L17,219.53l2.063,3.713a.5.5,0,0,0,.874-.486L17.85,219H21v12l-3,1v1h8v-1l-3-1Z"/>
  </symbol>
  <symbol id="ttp" viewBox="0 240 44 30">
    <path d="M29.191,258.981,22.445,253.2a4.221,4.221,0,0,0-4.952-6.017l2.437,2.437a.94.94,0,0,1,0,1.326l-1.487,1.487a.94.94,0,0,1-1.326,0l-2.437-2.437a4.22,4.22,0,0,0,6.017,4.952l5.783,6.746a.857.857,0,0,0,1.273.049l1.487-1.487a.857.857,0,0,0-.049-1.273Z"/>
  </symbol>
  <symbol id="verdict" viewBox="0 270 44 30">
    <path d="M30.27,292.2l-9.108-8.292.424-.425a1.944,1.944,0,0,0,.563-1.255c.017-.008.033-.015.049-.024l1.71-1.069a.719.719,0,0,0-.038-.955L20.9,277.2a.714.714,0,0,0-.952-.038l-1.066,1.714c-.009.016-.016.033-.024.049a1.934,1.934,0,0,0-1.252.565l-1.617,1.622a1.944,1.944,0,0,0-.563,1.255c-.017.007-.033.015-.049.024l-1.71,1.069a.719.719,0,0,0,.038.955l2.974,2.982a.715.715,0,0,0,.952.038l1.066-1.714c.009-.016.016-.033.024-.049a1.933,1.933,0,0,0,1.252-.565l.47-.471,8.27,9.133a.57.57,0,0,0,.821.095l.836-.838a.574.574,0,0,0-.095-.824Z"/>
  </symbol>
  <symbol id="sighting" viewBox="0 300 44 30">
    <path d="M22,309a8.96,8.96,0,0,0-8,5,8.9,8.9,0,0,0,16,0A8.961,8.961,0,0,0,22,309Zm3.945,2.652A7.618,7.618,0,0,1,28.279,314a7.6,7.6,0,0,1-2.334,2.348,7.328,7.328,0,0,1-7.889,0A7.6,7.6,0,0,1,15.721,314a7.593,7.593,0,0,1,2.335-2.348c.061-.039.123-.077.185-.114a4,4,0,1,0,7.518,0c.062.037.124.075.185.114h0ZM22,312.5a1.5,1.5,0,1,1-1.5-1.5A1.5,1.5,0,0,1,22,312.5Z"/>
  </symbol>
  <symbol id="vocabulary" viewBox="0 330 44 30">
    <path d="M29,338H13a1,1,0,0,0-1,1v3a1,1,0,0,0,1,1h1v9a1,1,0,0,0,1,1H29a1,1,0,0,0,1-1V339A1,1,0,0,0,29,338Zm-2,2-1.529,2L24,340Zm1,11H16v-2H28Zm0-3H16v-2H28Zm0-3H16v-2H28Z"/>
  </symbol>
  <symbol id="custom" viewBox="0 360 44 30">
    <path d="M17,371a1,1,0,0,1,1-1,1,1,0,0,0,0-2,3,3,0,0,0-3,3v2.5a.5.5,0,0,1-.5.5H14a1,1,0,1,0,0,2h.5a.5.5,0,0,1,.5.5V379a3,3,0,0,0,3,3,1,1,0,0,0,0-2,1,1,0,0,1-1-1v-2.5a2.494,2.494,0,0,1,0-3Z"/>
    <path d="M30,374h-.5a.5.5,0,0,1-.5-.5V371a3,3,0,0,0-3-3,1,1,0,0,0,0,2,1,1,0,0,1,1,1v2.5a2.495,2.495,0,0,1,0,3V379a1,1,0,0,1-1,1,1,1,0,0,0,0,2,3,3,0,0,0,3-3v-2.5a.5.5,0,0,1,.5-.5H30a1,1,0,1,0,0-2Z"/>
  </symbol>
  <symbol id="search" viewBox="44 0 15 15">
    <path d="M57.6,12.062l-3.08-2.619a1.375,1.375,0,0,0-.934-.4,4.876,4.876,0,1,0-.546.546,1.371,1.371,0,0,0,.406.933L56.063,13.6A1.092,1.092,0,1,0,57.6,12.063ZM49.875,9.124a3.25,3.25,0,1,1,3.25-3.25A3.25,3.25,0,0,1,49.875,9.124Z"/>
  </symbol>
  <symbol id="calendar" viewBox="44 15 15 15">
    <path d="M57,17H56v2H53V17H50v2H47V17H46a1,1,0,0,0-1,1V28a1,1,0,0,0,1,1H57a1,1,0,0,0,1-1V18A1,1,0,0,0,57,17ZM48,28H46V26h2Zm0-3H46V23h2Zm0-3H46V20h2Zm3,6H49V26h2Zm0-3H49V23h2Zm0-3H49V20h2Zm3,6H52V26h2Zm0-3H52V23h2Zm0-3H52V20h2Zm3,6H55V26h2Zm0-3H55V23h2Zm0-3H55V20h2Z"/>
    <rect x="48" y="16" width="1" height="2"/>
    <rect x="54" y="16" width="1" height="2"/>
  </symbol>
  <symbol id="time" viewBox="44 30 15 15">
    <polygon points="52.313 37.163 52.313 34.25 50.688 34.25 50.688 37.837 53.363 40.512 54.512 39.363 52.313 37.163"/>
    <path d="M51.5,31A6.5,6.5,0,1,0,58,37.5,6.5,6.5,0,0,0,51.5,31Zm0,11.5a5,5,0,1,1,5-5A5.006,5.006,0,0,1,51.5,42.5Z"/>
  </symbol>
  <symbol id="clear" viewBox="44 45 15 15">
    <path d="M55,49.831,54.169,49,51.5,51.669,48.831,49,48,49.831,50.669,52.5,48,55.169l.831.831L51.5,53.331,54.169,56,55,55.169,52.331,52.5Z"/>
  </symbol>
  <symbol id="breadcrumb" viewBox="59 0 15 40">
    <path d="M60.26,0H59L72.483,20,59,40h1.245L74,20Z"/>
  </symbol>
  <symbol id="breadcrumb-solid-left" viewBox="59 40 15 40">
    <path d="M74,40H59L72.483,60,59,80H74Z"/>
  </symbol>
  <symbol id="breadcrumb-solid-right" viewBox="59 80 15 40">
    <path d="M60.26,80H59v40h1.245L74,100Z"/>
  </symbol>
  <symbol id="historical" viewBox="74 0 20 16">
    <path d="M84,0a8,8,0,0,0-7.977,7.5H74L76.746,11.5,79.492,7.5h-1.97a6.5,6.5,0,1,1,7.637,6.893l.567,1.417A8,8,0,0,0,84,0Z"/>
    <polygon points="85.001 7.502 84 3.501 83 8.416 87.501 11.503 85.001 7.502"/>
  </symbol>
</svg>