<svg id="Icon_Sprite" data-name="Icon Sprite" xmlns="http://www.w3.org/2000/svg" viewBox="0 0 220 540"><defs><style>.cls-1,.cls-2{fill:#9aa1aa;}.cls-2,.cls-4,.cls-6,.cls-8{fill-rule:evenodd;}.cls-3,.cls-4{fill:#4e5764;}.cls-5,.cls-6{fill:#1f2b38;}.cls-7,.cls-8{fill:#ced3d9;}.cls-11,.cls-9{fill:#38f;}.cls-10,.cls-9{opacity:0.3;}</style></defs><title>nav-icon-sprite</title><polygon class="cls-1" points="12.377 11.656 11.686 11 8 14.5 11.686 18 12.377 17.344 9.382 14.5 12.377 11.656"/><path class="cls-1" d="M28.95,163.64a11.092,11.092,0,0,0-.6-2.955,6.762,6.762,0,0,0-5.887-4.655c-.154-.017-.307-.026-.46-.03s-.306.013-.46.03a6.762,6.762,0,0,0-5.887,4.655,11.092,11.092,0,0,0-.6,2.955,9.852,9.852,0,0,0,.127,2.9,8.872,8.872,0,0,0,5.37,6.157,3.617,3.617,0,0,0,2.905,0,8.872,8.872,0,0,0,5.37-6.157A9.851,9.851,0,0,0,28.95,163.64Zm-12.163-2.962c.137-.515.5-.678,1.047-.677q2.083,0,4.166,0t4.166,0c.552,0,.91.162,1.047.677s.21,1.023.332,1.637a2.237,2.237,0,0,1-.619-.068,2.586,2.586,0,0,0-2.035-.09,8.056,8.056,0,0,1-5.784,0,2.586,2.586,0,0,0-2.035.09,2.238,2.238,0,0,1-.619.068C16.577,161.7,16.653,161.181,16.787,160.677Zm9.135,3.758a1.646,1.646,0,0,1-2.738.028A1.635,1.635,0,0,1,25.922,164.435Zm-5.106.028a1.646,1.646,0,0,1-2.738-.028A1.635,1.635,0,0,1,20.816,164.463Zm6.8,1.867a7.2,7.2,0,0,1-4.579,5.179,2.916,2.916,0,0,1-2.077,0,7.2,7.2,0,0,1-4.579-5.179.6.6,0,0,1,.065-.457c.1.12.208.24.314.36a3.774,3.774,0,0,0,2.688,1.251,1.558,1.558,0,0,0,1.339-.6c.209-.244.4-.5.631-.728a.7.7,0,0,1,1.164,0c.226.227.422.484.631.728a1.558,1.558,0,0,0,1.339.6,3.774,3.774,0,0,0,2.688-1.251c.105-.119.209-.24.314-.36A.6.6,0,0,1,27.617,166.331Z"/><path class="cls-1" d="M18.122,197.578l-1.168-3.351-1.171,3.351H12l3.06,2.072L13.892,203l3.06-2.072L20.012,203l-1.168-3.35,3.06-2.072Zm5.77-6.156,3.06-2.071H23.17L22,186l-1.171,3.351H17.048l3.06,2.071-1.168,3.351L22,192.7l3.06,2.071ZM32,197.578H28.218l-1.168-3.351-1.171,3.351H22.1l3.06,2.072L23.988,203l3.06-2.072L30.108,203l-1.168-3.35Z"/><path class="cls-2" d="M29,220H25v-2a1,1,0,0,0-1-1H20a1,1,0,0,0-1,1v2H15a2.006,2.006,0,0,0-2,2v8a2.006,2.006,0,0,0,2,2H29a2.006,2.006,0,0,0,2-2v-8A2.006,2.006,0,0,0,29,220Zm-9-2h4v2H20Zm6,9H23v3H21v-3H18v-2h3v-3h2v3h3Z"/><path class="cls-2" d="M22,247a8,8,0,1,0,8,8A8.009,8.009,0,0,0,22,247Zm0,14.222A6.222,6.222,0,1,1,28.222,255,6.229,6.229,0,0,1,22,261.222Z"/><path class="cls-2" d="M22,250.556A4.444,4.444,0,1,0,26.444,255,4.45,4.45,0,0,0,22,250.556Zm0,7.111A2.667,2.667,0,1,1,24.667,255,2.67,2.67,0,0,1,22,257.667Z"/><circle class="cls-1" cx="22" cy="255" r="1"/><path class="cls-2" d="M17.512,283.818a3.682,3.682,0,0,0-.548.041,4.914,4.914,0,0,1,.5-.552,5.082,5.082,0,0,1,3.532-1.4V280A6.843,6.843,0,0,0,14,286.682l.016.477a3.5,3.5,0,1,0,3.5-3.341Z"/><path class="cls-2" d="M26.5,283.818a3.683,3.683,0,0,0-.548.041,4.909,4.909,0,0,1,.5-.552,5.082,5.082,0,0,1,3.532-1.4V280a6.843,6.843,0,0,0-6.993,6.682l.016.477a3.5,3.5,0,1,0,3.5-3.341Z"/><path class="cls-1" d="M28.978,312.935a.438.438,0,0,0-.417-.3H23.866l-1.45-4.344a.44.44,0,0,0-.831,0l-1.45,4.344H15.441a.437.437,0,0,0-.416.3.422.422,0,0,0,.16.478l3.8,2.684-1.449,4.343a.423.423,0,0,0,.158.478.447.447,0,0,0,.515,0l3.8-2.685,3.8,2.685a.442.442,0,0,0,.256.082.451.451,0,0,0,.259-.082.423.423,0,0,0,.157-.478L25.023,316.1l3.8-2.684a.424.424,0,0,0,.161-.478Z"/><path class="cls-2" d="M27.25,350l-3.67-12.107c-.147-.491-.563-.893-.924-.893H21.344c-.361,0-.777.4-.924.893L16.75,350H15v2H29v-2Zm-6.487-10.187h2.474l.563,1.875H20.2Zm-1.125,3.75h4.724l.562,1.875H19.075Zm-1.688,5.625.562-1.875h6.974l.562,1.875Z"/><path class="cls-2" d="M20,374.5V374H14v.5a1.5,1.5,0,0,0,1.5,1.5h3A1.5,1.5,0,0,0,20,374.5Z"/><path class="cls-2" d="M24,374v.5a1.5,1.5,0,0,0,1.5,1.5h3a1.5,1.5,0,0,0,1.5-1.5V374Z"/><path class="cls-2" d="M23,369h3.15l-2.087,3.757a.5.5,0,0,0,.874.486L27,369.53l2.063,3.713a.5.5,0,0,0,.874-.486l-2.5-4.5A.5.5,0,0,0,27,368H23a1,1,0,0,0-2,0H17a.5.5,0,0,0-.437.257l-2.5,4.5a.5.5,0,0,0,.874.486L17,369.53l2.063,3.713a.5.5,0,0,0,.874-.486L17.85,369H21v12l-3,1v1h8v-1l-3-1Z"/><path class="cls-2" d="M29.191,408.981,22.445,403.2a4.221,4.221,0,0,0-4.952-6.017l2.437,2.437a.94.94,0,0,1,0,1.326l-1.487,1.487a.94.94,0,0,1-1.326,0l-2.437-2.437a4.22,4.22,0,0,0,6.017,4.952l5.783,6.746a.857.857,0,0,0,1.273.049l1.487-1.487a.857.857,0,0,0-.049-1.273Z"/><path class="cls-2" d="M30.27,442.2l-9.108-8.292.424-.425a1.944,1.944,0,0,0,.563-1.255c.017-.008.033-.015.049-.024l1.71-1.069a.719.719,0,0,0-.038-.955L20.9,427.2a.714.714,0,0,0-.952-.038l-1.066,1.714c-.009.016-.016.033-.024.049a1.934,1.934,0,0,0-1.252.565l-1.617,1.622a1.944,1.944,0,0,0-.563,1.255c-.017.007-.033.015-.049.024l-1.71,1.069a.719.719,0,0,0,.038.955l2.974,2.982a.715.715,0,0,0,.952.038l1.066-1.714c.009-.016.016-.033.024-.049a1.933,1.933,0,0,0,1.252-.565l.47-.471,8.27,9.133a.57.57,0,0,0,.821.095l.836-.838a.574.574,0,0,0-.095-.824Z"/><path class="cls-1" d="M22,459a8.96,8.96,0,0,0-8,5,8.9,8.9,0,0,0,16,0A8.961,8.961,0,0,0,22,459Zm3.945,2.652A7.618,7.618,0,0,1,28.279,464a7.6,7.6,0,0,1-2.334,2.348,7.328,7.328,0,0,1-7.889,0A7.6,7.6,0,0,1,15.721,464a7.593,7.593,0,0,1,2.335-2.348c.061-.039.123-.077.185-.114a4,4,0,1,0,7.518,0c.062.037.124.075.185.114h0ZM22,462.5a1.5,1.5,0,1,1-1.5-1.5A1.5,1.5,0,0,1,22,462.5Z"/><path class="cls-2" d="M29,488H13a1,1,0,0,0-1,1v3a1,1,0,0,0,1,1h1v9a1,1,0,0,0,1,1H29a1,1,0,0,0,1-1V489A1,1,0,0,0,29,488Zm-2,2-1.529,2L24,490Zm1,11H16v-2H28Zm0-3H16v-2H28Zm0-3H16v-2H28Z"/><path class="cls-2" d="M17,521a1,1,0,0,1,1-1,1,1,0,0,0,0-2,3,3,0,0,0-3,3v2.5a.5.5,0,0,1-.5.5H14a1,1,0,1,0,0,2h.5a.5.5,0,0,1,.5.5V529a3,3,0,0,0,3,3,1,1,0,0,0,0-2,1,1,0,0,1-1-1v-2.5a2.494,2.494,0,0,1,0-3Z"/><path class="cls-2" d="M30,524h-.5a.5.5,0,0,1-.5-.5V521a3,3,0,0,0-3-3,1,1,0,0,0,0,2,1,1,0,0,1,1,1v2.5a2.495,2.495,0,0,1,0,3V529a1,1,0,0,1-1,1,1,1,0,0,0,0,2,3,3,0,0,0,3-3v-2.5a.5.5,0,0,1,.5-.5H30a1,1,0,1,0,0-2Z"/><rect class="cls-1" x="16" y="17" width="12" height="1"/><rect class="cls-1" x="16" y="14" width="12" height="1"/><rect class="cls-1" x="16" y="11" width="12" height="1"/><polygon class="cls-1" points="32.314 41 31.623 41.656 34.618 44.5 31.623 47.344 32.314 48 36 44.5 32.314 41"/><rect class="cls-1" x="16" y="47" width="12" height="1"/><rect class="cls-1" x="16" y="44" width="12" height="1"/><rect class="cls-1" x="16" y="41" width="12" height="1"/><rect class="cls-1" x="16" y="77" width="12" height="1"/><rect class="cls-1" x="16" y="74" width="12" height="1"/><rect class="cls-1" x="16" y="71" width="12" height="1"/><polygon class="cls-1" points="12.377 101.656 11.686 101 8 104.5 11.686 108 12.377 107.344 9.382 104.5 12.377 101.656"/><polygon class="cls-1" points="32.314 131 31.623 131.656 34.618 134.5 31.623 137.344 32.314 138 36 134.5 32.314 131"/><polygon class="cls-3" points="56.377 11.656 55.686 11 52 14.5 55.686 18 56.377 17.344 53.382 14.5 56.377 11.656"/><path class="cls-3" d="M72.95,163.64a11.092,11.092,0,0,0-.6-2.955,6.762,6.762,0,0,0-5.887-4.655c-.154-.017-.307-.026-.46-.03s-.306.013-.46.03a6.762,6.762,0,0,0-5.887,4.655,11.092,11.092,0,0,0-.6,2.955,9.852,9.852,0,0,0,.127,2.9,8.872,8.872,0,0,0,5.37,6.157,3.617,3.617,0,0,0,2.905,0,8.872,8.872,0,0,0,5.37-6.157A9.851,9.851,0,0,0,72.95,163.64Zm-12.163-2.962c.137-.515.5-.678,1.047-.677q2.083,0,4.166,0t4.166,0c.552,0,.91.162,1.047.677s.21,1.023.332,1.637a2.237,2.237,0,0,1-.619-.068,2.586,2.586,0,0,0-2.035-.09,8.056,8.056,0,0,1-5.784,0,2.586,2.586,0,0,0-2.035.09,2.238,2.238,0,0,1-.619.068C60.577,161.7,60.653,161.181,60.787,160.677Zm9.135,3.758a1.646,1.646,0,0,1-2.738.028A1.635,1.635,0,0,1,69.922,164.435Zm-5.106.028a1.646,1.646,0,0,1-2.738-.028A1.635,1.635,0,0,1,64.816,164.463Zm6.8,1.867a7.2,7.2,0,0,1-4.579,5.179,2.916,2.916,0,0,1-2.077,0,7.2,7.2,0,0,1-4.579-5.179.6.6,0,0,1,.065-.457c.1.12.208.24.314.36a3.774,3.774,0,0,0,2.688,1.251,1.558,1.558,0,0,0,1.339-.6c.209-.244.4-.5.631-.728a.7.7,0,0,1,1.164,0c.226.227.422.484.631.728a1.558,1.558,0,0,0,1.339.6,3.774,3.774,0,0,0,2.688-1.251c.105-.119.209-.24.314-.36A.6.6,0,0,1,71.617,166.331Z"/><path class="cls-3" d="M62.121,197.578l-1.168-3.351-1.171,3.351H56l3.06,2.072L57.892,203l3.06-2.072L64.012,203l-1.168-3.35,3.06-2.072Zm5.77-6.156,3.06-2.071H67.17L66,186l-1.171,3.351H61.048l3.06,2.071-1.168,3.351L66,192.7l3.06,2.071ZM76,197.578H72.218l-1.168-3.351-1.171,3.351H66.1l3.06,2.072L67.988,203l3.06-2.072L74.108,203l-1.168-3.35Z"/><path class="cls-4" d="M73,220H69v-2a1,1,0,0,0-1-1H64a1,1,0,0,0-1,1v2H59a2.006,2.006,0,0,0-2,2v8a2.006,2.006,0,0,0,2,2H73a2.006,2.006,0,0,0,2-2v-8A2.006,2.006,0,0,0,73,220Zm-9-2h4v2H64Zm6,9H67v3H65v-3H62v-2h3v-3h2v3h3Z"/><path class="cls-4" d="M66,247a8,8,0,1,0,8,8A8.009,8.009,0,0,0,66,247Zm0,14.222A6.222,6.222,0,1,1,72.222,255,6.229,6.229,0,0,1,66,261.222Z"/><path class="cls-4" d="M66,250.556A4.444,4.444,0,1,0,70.444,255,4.45,4.45,0,0,0,66,250.556Zm0,7.111A2.667,2.667,0,1,1,68.667,255,2.67,2.67,0,0,1,66,257.667Z"/><circle class="cls-3" cx="66" cy="255" r="1"/><path class="cls-4" d="M61.512,283.818a3.682,3.682,0,0,0-.548.041,4.914,4.914,0,0,1,.5-.552,5.082,5.082,0,0,1,3.532-1.4V280A6.843,6.843,0,0,0,58,286.682l.016.477a3.5,3.5,0,1,0,3.5-3.341Z"/><path class="cls-4" d="M70.5,283.818a3.683,3.683,0,0,0-.548.041,4.909,4.909,0,0,1,.5-.552,5.082,5.082,0,0,1,3.532-1.4V280a6.843,6.843,0,0,0-6.993,6.682l.016.477a3.5,3.5,0,1,0,3.5-3.341Z"/><path class="cls-3" d="M72.978,312.935a.438.438,0,0,0-.417-.3H67.866l-1.45-4.344a.44.44,0,0,0-.831,0l-1.45,4.344H59.441a.437.437,0,0,0-.416.3.422.422,0,0,0,.16.478l3.8,2.684-1.449,4.343a.423.423,0,0,0,.158.478.447.447,0,0,0,.515,0l3.8-2.685,3.8,2.685a.442.442,0,0,0,.256.082.451.451,0,0,0,.259-.082.423.423,0,0,0,.157-.478L69.023,316.1l3.8-2.684a.424.424,0,0,0,.161-.478Z"/><path class="cls-4" d="M71.25,350l-3.67-12.107c-.147-.491-.563-.893-.924-.893H65.344c-.361,0-.777.4-.924.893L60.75,350H59v2H73v-2Zm-6.487-10.187h2.474l.563,1.875H64.2Zm-1.125,3.75h4.724l.562,1.875H63.075Zm-1.688,5.625.562-1.875h6.974l.562,1.875Z"/><path class="cls-4" d="M64,374.5V374H58v.5a1.5,1.5,0,0,0,1.5,1.5h3A1.5,1.5,0,0,0,64,374.5Z"/><path class="cls-4" d="M68,374v.5a1.5,1.5,0,0,0,1.5,1.5h3a1.5,1.5,0,0,0,1.5-1.5V374Z"/><path class="cls-4" d="M67,369h3.15l-2.087,3.757a.5.5,0,0,0,.874.486L71,369.53l2.063,3.713a.5.5,0,0,0,.874-.486l-2.5-4.5A.5.5,0,0,0,71,368H67a1,1,0,0,0-2,0H61a.5.5,0,0,0-.437.257l-2.5,4.5a.5.5,0,0,0,.874.486L61,369.53l2.063,3.713a.5.5,0,0,0,.874-.486L61.85,369H65v12l-3,1v1h8v-1l-3-1Z"/><path class="cls-4" d="M73.191,408.981,66.445,403.2a4.221,4.221,0,0,0-4.952-6.017l2.437,2.437a.94.94,0,0,1,0,1.326l-1.487,1.487a.94.94,0,0,1-1.326,0l-2.437-2.437a4.22,4.22,0,0,0,6.017,4.952l5.783,6.746a.857.857,0,0,0,1.273.049l1.487-1.487a.857.857,0,0,0-.049-1.273Z"/><path class="cls-4" d="M74.27,442.2l-9.108-8.292.424-.425a1.944,1.944,0,0,0,.563-1.255c.017-.008.033-.015.049-.024l1.71-1.069a.719.719,0,0,0-.038-.955L64.9,427.2a.714.714,0,0,0-.952-.038l-1.066,1.714c-.009.016-.016.033-.024.049a1.934,1.934,0,0,0-1.252.565l-1.617,1.622a1.944,1.944,0,0,0-.563,1.255c-.017.007-.033.015-.049.024l-1.71,1.069a.719.719,0,0,0,.038.955l2.974,2.982a.715.715,0,0,0,.952.038l1.066-1.714c.009-.016.016-.033.024-.049a1.933,1.933,0,0,0,1.252-.565l.47-.471,8.27,9.133a.57.57,0,0,0,.821.095l.836-.838a.574.574,0,0,0-.095-.824Z"/><path class="cls-3" d="M66,459a8.96,8.96,0,0,0-8,5,8.9,8.9,0,0,0,16,0A8.961,8.961,0,0,0,66,459Zm3.945,2.652A7.618,7.618,0,0,1,72.279,464a7.6,7.6,0,0,1-2.334,2.348,7.328,7.328,0,0,1-7.889,0A7.6,7.6,0,0,1,59.721,464a7.593,7.593,0,0,1,2.335-2.348c.061-.039.123-.077.185-.114a4,4,0,1,0,7.518,0c.062.037.124.075.185.114h0ZM66,462.5a1.5,1.5,0,1,1-1.5-1.5A1.5,1.5,0,0,1,66,462.5Z"/><path class="cls-4" d="M73,488H57a1,1,0,0,0-1,1v3a1,1,0,0,0,1,1h1v9a1,1,0,0,0,1,1H73a1,1,0,0,0,1-1V489A1,1,0,0,0,73,488Zm-2,2-1.529,2L68,490Zm1,11H60v-2H72Zm0-3H60v-2H72Zm0-3H60v-2H72Z"/><path class="cls-4" d="M61,521a1,1,0,0,1,1-1,1,1,0,0,0,0-2,3,3,0,0,0-3,3v2.5a.5.5,0,0,1-.5.5H58a1,1,0,1,0,0,2h.5a.5.5,0,0,1,.5.5V529a3,3,0,0,0,3,3,1,1,0,0,0,0-2,1,1,0,0,1-1-1v-2.5a2.494,2.494,0,0,1,0-3Z"/><path class="cls-4" d="M74,524h-.5a.5.5,0,0,1-.5-.5V521a3,3,0,0,0-3-3,1,1,0,0,0,0,2,1,1,0,0,1,1,1v2.5a2.495,2.495,0,0,1,0,3V529a1,1,0,0,1-1,1,1,1,0,0,0,0,2,3,3,0,0,0,3-3v-2.5a.5.5,0,0,1,.5-.5H74a1,1,0,1,0,0-2Z"/><rect class="cls-3" x="60" y="17" width="12" height="1"/><rect class="cls-3" x="60" y="14" width="12" height="1"/><rect class="cls-3" x="60" y="11" width="12" height="1"/><polygon class="cls-3" points="76.314 41 75.623 41.656 78.618 44.5 75.623 47.344 76.314 48 80 44.5 76.314 41"/><rect class="cls-3" x="60" y="47" width="12" height="1"/><rect class="cls-3" x="60" y="44" width="12" height="1"/><rect class="cls-3" x="60" y="41" width="12" height="1"/><rect class="cls-3" x="60" y="77" width="12" height="1"/><rect class="cls-3" x="60" y="74" width="12" height="1"/><rect class="cls-3" x="60" y="71" width="12" height="1"/><polygon class="cls-3" points="56.377 101.656 55.686 101 52 104.5 55.686 108 56.377 107.344 53.382 104.5 56.377 101.656"/><polygon class="cls-3" points="76.314 131 75.623 131.656 78.618 134.5 75.623 137.344 76.314 138 80 134.5 76.314 131"/><polygon class="cls-5" points="100.377 11.656 99.686 11 96 14.5 99.686 18 100.377 17.344 97.382 14.5 100.377 11.656"/><path class="cls-5" d="M116.95,163.64a11.092,11.092,0,0,0-.6-2.955,6.762,6.762,0,0,0-5.887-4.655c-.154-.017-.307-.026-.46-.03s-.306.013-.46.03a6.762,6.762,0,0,0-5.887,4.655,11.092,11.092,0,0,0-.6,2.955,9.852,9.852,0,0,0,.127,2.9,8.872,8.872,0,0,0,5.37,6.157,3.617,3.617,0,0,0,2.905,0,8.872,8.872,0,0,0,5.37-6.157A9.851,9.851,0,0,0,116.95,163.64Zm-12.163-2.962c.137-.515.5-.678,1.047-.677q2.083,0,4.166,0t4.166,0c.552,0,.91.162,1.047.677s.21,1.023.332,1.637a2.237,2.237,0,0,1-.619-.068,2.586,2.586,0,0,0-2.035-.09,8.056,8.056,0,0,1-5.784,0,2.586,2.586,0,0,0-2.035.09,2.238,2.238,0,0,1-.619.068C104.577,161.7,104.653,161.181,104.787,160.677Zm9.135,3.758a1.646,1.646,0,0,1-2.738.028A1.635,1.635,0,0,1,113.922,164.435Zm-5.106.028a1.646,1.646,0,0,1-2.738-.028A1.635,1.635,0,0,1,108.816,164.463Zm6.8,1.867a7.2,7.2,0,0,1-4.579,5.179,2.916,2.916,0,0,1-2.077,0,7.2,7.2,0,0,1-4.579-5.179.6.6,0,0,1,.065-.457c.1.12.208.24.314.36a3.774,3.774,0,0,0,2.688,1.251,1.558,1.558,0,0,0,1.339-.6c.209-.244.4-.5.631-.728a.7.7,0,0,1,1.164,0c.226.227.422.484.631.728a1.558,1.558,0,0,0,1.339.6,3.774,3.774,0,0,0,2.688-1.251c.105-.119.209-.24.314-.36A.6.6,0,0,1,115.617,166.331Z"/><path class="cls-5" d="M106.121,197.578l-1.168-3.351-1.171,3.351H100l3.06,2.072L101.892,203l3.06-2.072,3.06,2.072-1.168-3.35,3.06-2.072Zm5.77-6.156,3.06-2.071H111.17L110,186l-1.171,3.351h-3.782l3.06,2.071-1.168,3.351L110,192.7l3.06,2.071ZM120,197.578h-3.782l-1.168-3.351-1.171,3.351H110.1l3.06,2.072L111.988,203l3.06-2.072,3.06,2.072-1.168-3.35Z"/><path class="cls-6" d="M117,220h-4v-2a1,1,0,0,0-1-1h-4a1,1,0,0,0-1,1v2h-4a2.006,2.006,0,0,0-2,2v8a2.006,2.006,0,0,0,2,2h14a2.006,2.006,0,0,0,2-2v-8A2.006,2.006,0,0,0,117,220Zm-9-2h4v2h-4Zm6,9h-3v3h-2v-3h-3v-2h3v-3h2v3h3Z"/><path class="cls-6" d="M110,247a8,8,0,1,0,8,8A8.009,8.009,0,0,0,110,247Zm0,14.222A6.222,6.222,0,1,1,116.222,255,6.229,6.229,0,0,1,110,261.222Z"/><path class="cls-6" d="M110,250.556A4.444,4.444,0,1,0,114.444,255,4.45,4.45,0,0,0,110,250.556Zm0,7.111A2.667,2.667,0,1,1,112.667,255,2.67,2.67,0,0,1,110,257.667Z"/><circle class="cls-5" cx="110" cy="255" r="1"/><path class="cls-6" d="M105.512,283.818a3.682,3.682,0,0,0-.548.041,4.914,4.914,0,0,1,.5-.552,5.082,5.082,0,0,1,3.532-1.4V280A6.843,6.843,0,0,0,102,286.682l.016.477a3.5,3.5,0,1,0,3.5-3.341Z"/><path class="cls-6" d="M114.5,283.818a3.683,3.683,0,0,0-.548.041,4.909,4.909,0,0,1,.5-.552,5.082,5.082,0,0,1,3.532-1.4V280a6.843,6.843,0,0,0-6.993,6.682l.016.477a3.5,3.5,0,1,0,3.5-3.341Z"/><path class="cls-5" d="M116.978,312.935a.438.438,0,0,0-.417-.3h-4.694l-1.45-4.344a.44.44,0,0,0-.831,0l-1.45,4.344h-4.694a.437.437,0,0,0-.416.3.422.422,0,0,0,.16.478l3.8,2.684-1.449,4.343a.423.423,0,0,0,.158.478.447.447,0,0,0,.515,0l3.8-2.685,3.8,2.685a.442.442,0,0,0,.256.082.451.451,0,0,0,.259-.082.423.423,0,0,0,.157-.478l-1.449-4.343,3.8-2.684a.424.424,0,0,0,.161-.478Z"/><path class="cls-6" d="M115.25,350l-3.67-12.107c-.147-.491-.563-.893-.924-.893h-1.312c-.361,0-.777.4-.924.893L104.75,350H103v2h14v-2Zm-6.487-10.187h2.474l.563,1.875h-3.6Zm-1.125,3.75h4.724l.562,1.875h-5.849Zm-1.688,5.625.562-1.875h6.974l.562,1.875Z"/><path class="cls-6" d="M108,374.5V374h-6v.5a1.5,1.5,0,0,0,1.5,1.5h3A1.5,1.5,0,0,0,108,374.5Z"/><path class="cls-6" d="M112,374v.5a1.5,1.5,0,0,0,1.5,1.5h3a1.5,1.5,0,0,0,1.5-1.5V374Z"/><path class="cls-6" d="M111,369h3.15l-2.087,3.757a.5.5,0,0,0,.874.486L115,369.53l2.063,3.713a.5.5,0,0,0,.874-.486l-2.5-4.5A.5.5,0,0,0,115,368h-4a1,1,0,0,0-2,0h-4a.5.5,0,0,0-.437.257l-2.5,4.5a.5.5,0,0,0,.874.486L105,369.53l2.063,3.713a.5.5,0,0,0,.874-.486L105.85,369H109v12l-3,1v1h8v-1l-3-1Z"/><path class="cls-6" d="M117.191,408.981l-6.746-5.783a4.221,4.221,0,0,0-4.952-6.017l2.437,2.437a.94.94,0,0,1,0,1.326l-1.487,1.487a.94.94,0,0,1-1.326,0l-2.437-2.437a4.22,4.22,0,0,0,6.017,4.952l5.783,6.746a.857.857,0,0,0,1.273.049l1.487-1.487a.857.857,0,0,0-.049-1.273Z"/><path class="cls-6" d="M118.27,442.2l-9.108-8.292.424-.425a1.944,1.944,0,0,0,.563-1.255c.017-.008.033-.015.049-.024l1.71-1.069a.719.719,0,0,0-.038-.955L108.9,427.2a.714.714,0,0,0-.952-.038l-1.066,1.714c-.009.016-.016.033-.024.049a1.934,1.934,0,0,0-1.252.565l-1.617,1.622a1.944,1.944,0,0,0-.563,1.255c-.017.007-.033.015-.049.024l-1.71,1.069a.719.719,0,0,0,.038.955l2.974,2.982a.715.715,0,0,0,.952.038l1.066-1.714c.009-.016.016-.033.024-.049a1.933,1.933,0,0,0,1.252-.565l.47-.471,8.27,9.133a.57.57,0,0,0,.821.095l.836-.838a.574.574,0,0,0-.095-.824Z"/><path class="cls-5" d="M110,459a8.96,8.96,0,0,0-8,5,8.9,8.9,0,0,0,16,0A8.961,8.961,0,0,0,110,459Zm3.945,2.652A7.618,7.618,0,0,1,116.279,464a7.6,7.6,0,0,1-2.334,2.348,7.328,7.328,0,0,1-7.889,0A7.6,7.6,0,0,1,103.721,464a7.593,7.593,0,0,1,2.335-2.348c.061-.039.123-.077.185-.114a4,4,0,1,0,7.518,0c.062.037.124.075.185.114h0ZM110,462.5a1.5,1.5,0,1,1-1.5-1.5A1.5,1.5,0,0,1,110,462.5Z"/><path class="cls-6" d="M117,488H101a1,1,0,0,0-1,1v3a1,1,0,0,0,1,1h1v9a1,1,0,0,0,1,1h14a1,1,0,0,0,1-1V489A1,1,0,0,0,117,488Zm-2,2-1.529,2L112,490Zm1,11H104v-2h12Zm0-3H104v-2h12Zm0-3H104v-2h12Z"/><path class="cls-6" d="M105,521a1,1,0,0,1,1-1,1,1,0,0,0,0-2,3,3,0,0,0-3,3v2.5a.5.5,0,0,1-.5.5H102a1,1,0,1,0,0,2h.5a.5.5,0,0,1,.5.5V529a3,3,0,0,0,3,3,1,1,0,0,0,0-2,1,1,0,0,1-1-1v-2.5a2.494,2.494,0,0,1,0-3Z"/><path class="cls-6" d="M118,524h-.5a.5.5,0,0,1-.5-.5V521a3,3,0,0,0-3-3,1,1,0,0,0,0,2,1,1,0,0,1,1,1v2.5a2.495,2.495,0,0,1,0,3V529a1,1,0,0,1-1,1,1,1,0,0,0,0,2,3,3,0,0,0,3-3v-2.5a.5.5,0,0,1,.5-.5h.5a1,1,0,1,0,0-2Z"/><rect class="cls-5" x="104" y="17" width="12" height="1"/><rect class="cls-5" x="104" y="14" width="12" height="1"/><rect class="cls-5" x="104" y="11" width="12" height="1"/><polygon class="cls-5" points="120.314 41 119.623 41.656 122.618 44.5 119.623 47.344 120.314 48 124 44.5 120.314 41"/><rect class="cls-5" x="104" y="47" width="12" height="1"/><rect class="cls-5" x="104" y="44" width="12" height="1"/><rect class="cls-5" x="104" y="41" width="12" height="1"/><rect class="cls-5" x="104" y="77" width="12" height="1"/><rect class="cls-5" x="104" y="74" width="12" height="1"/><rect class="cls-5" x="104" y="71" width="12" height="1"/><polygon class="cls-5" points="100.377 101.656 99.686 101 96 104.5 99.686 108 100.377 107.344 97.382 104.5 100.377 101.656"/><polygon class="cls-5" points="120.314 131 119.623 131.656 122.618 134.5 119.623 137.344 120.314 138 124 134.5 120.314 131"/><polygon class="cls-7" points="188.377 11.656 187.686 11 184 14.5 187.686 18 188.377 17.344 185.382 14.5 188.377 11.656"/><path class="cls-7" d="M204.95,163.64a11.092,11.092,0,0,0-.6-2.955,6.762,6.762,0,0,0-5.887-4.655c-.154-.017-.307-.026-.46-.03s-.306.013-.46.03a6.762,6.762,0,0,0-5.887,4.655,11.092,11.092,0,0,0-.6,2.955,9.852,9.852,0,0,0,.127,2.9,8.872,8.872,0,0,0,5.37,6.157,3.617,3.617,0,0,0,2.905,0,8.872,8.872,0,0,0,5.37-6.157A9.851,9.851,0,0,0,204.95,163.64Zm-12.163-2.962c.137-.515.5-.678,1.047-.677q2.083,0,4.166,0t4.166,0c.552,0,.91.162,1.047.677s.21,1.023.332,1.637a2.237,2.237,0,0,1-.619-.068,2.586,2.586,0,0,0-2.035-.09,8.056,8.056,0,0,1-5.784,0,2.586,2.586,0,0,0-2.035.09,2.238,2.238,0,0,1-.619.068C192.577,161.7,192.653,161.181,192.787,160.677Zm9.135,3.758a1.646,1.646,0,0,1-2.738.028A1.635,1.635,0,0,1,201.922,164.435Zm-5.106.028a1.646,1.646,0,0,1-2.738-.028A1.635,1.635,0,0,1,196.816,164.463Zm6.8,1.867a7.2,7.2,0,0,1-4.579,5.179,2.916,2.916,0,0,1-2.077,0,7.2,7.2,0,0,1-4.579-5.179.6.6,0,0,1,.065-.457c.1.12.208.24.314.36a3.774,3.774,0,0,0,2.688,1.251,1.558,1.558,0,0,0,1.339-.6c.209-.244.4-.5.631-.728a.7.7,0,0,1,1.164,0c.226.227.422.484.631.728a1.558,1.558,0,0,0,1.339.6,3.774,3.774,0,0,0,2.688-1.251c.105-.119.209-.24.314-.36A.6.6,0,0,1,203.617,166.331Z"/><path class="cls-7" d="M194.121,197.578l-1.168-3.351-1.171,3.351H188l3.06,2.072L189.892,203l3.06-2.072,3.06,2.072-1.168-3.35,3.06-2.072Zm5.77-6.156,3.06-2.071H199.17L198,186l-1.171,3.351h-3.782l3.06,2.071-1.168,3.351L198,192.7l3.06,2.071ZM208,197.578h-3.782l-1.168-3.351-1.171,3.351H198.1l3.06,2.072L199.988,203l3.06-2.072,3.06,2.072-1.168-3.35Z"/><path class="cls-8" d="M205,220h-4v-2a1,1,0,0,0-1-1h-4a1,1,0,0,0-1,1v2h-4a2.006,2.006,0,0,0-2,2v8a2.006,2.006,0,0,0,2,2h14a2.006,2.006,0,0,0,2-2v-8A2.006,2.006,0,0,0,205,220Zm-9-2h4v2h-4Zm6,9h-3v3h-2v-3h-3v-2h3v-3h2v3h3Z"/><path class="cls-8" d="M198,247a8,8,0,1,0,8,8A8.009,8.009,0,0,0,198,247Zm0,14.222A6.222,6.222,0,1,1,204.222,255,6.229,6.229,0,0,1,198,261.222Z"/><path class="cls-8" d="M198,250.556A4.444,4.444,0,1,0,202.444,255,4.45,4.45,0,0,0,198,250.556Zm0,7.111A2.667,2.667,0,1,1,200.667,255,2.67,2.67,0,0,1,198,257.667Z"/><circle class="cls-7" cx="198" cy="255" r="1"/><path class="cls-8" d="M193.512,283.818a3.682,3.682,0,0,0-.548.041,4.914,4.914,0,0,1,.5-.552,5.082,5.082,0,0,1,3.532-1.4V280A6.843,6.843,0,0,0,190,286.682l.016.477a3.5,3.5,0,1,0,3.5-3.341Z"/><path class="cls-8" d="M202.5,283.818a3.683,3.683,0,0,0-.548.041,4.909,4.909,0,0,1,.5-.552,5.082,5.082,0,0,1,3.532-1.4V280a6.843,6.843,0,0,0-6.993,6.682l.016.477a3.5,3.5,0,1,0,3.5-3.341Z"/><path class="cls-7" d="M204.978,312.935a.438.438,0,0,0-.417-.3h-4.694l-1.45-4.344a.44.44,0,0,0-.831,0l-1.45,4.344h-4.694a.437.437,0,0,0-.416.3.422.422,0,0,0,.16.478l3.8,2.684-1.449,4.343a.423.423,0,0,0,.158.478.447.447,0,0,0,.515,0l3.8-2.685,3.8,2.685a.442.442,0,0,0,.256.082.451.451,0,0,0,.259-.082.423.423,0,0,0,.157-.478l-1.449-4.343,3.8-2.684a.424.424,0,0,0,.161-.478Z"/><path class="cls-8" d="M203.25,350l-3.67-12.107c-.147-.491-.563-.893-.924-.893h-1.312c-.361,0-.777.4-.924.893L192.75,350H191v2h14v-2Zm-6.487-10.187h2.474l.563,1.875h-3.6Zm-1.125,3.75h4.724l.562,1.875h-5.849Zm-1.688,5.625.562-1.875h6.974l.562,1.875Z"/><path class="cls-8" d="M196,374.5V374h-6v.5a1.5,1.5,0,0,0,1.5,1.5h3A1.5,1.5,0,0,0,196,374.5Z"/><path class="cls-8" d="M200,374v.5a1.5,1.5,0,0,0,1.5,1.5h3a1.5,1.5,0,0,0,1.5-1.5V374Z"/><path class="cls-8" d="M199,369h3.15l-2.087,3.757a.5.5,0,0,0,.874.486L203,369.53l2.063,3.713a.5.5,0,0,0,.874-.486l-2.5-4.5A.5.5,0,0,0,203,368h-4a1,1,0,0,0-2,0h-4a.5.5,0,0,0-.437.257l-2.5,4.5a.5.5,0,0,0,.874.486L193,369.53l2.063,3.713a.5.5,0,0,0,.874-.486L193.85,369H197v12l-3,1v1h8v-1l-3-1Z"/><path class="cls-8" d="M205.191,408.981l-6.746-5.783a4.221,4.221,0,0,0-4.952-6.017l2.437,2.437a.94.94,0,0,1,0,1.326l-1.487,1.487a.94.94,0,0,1-1.326,0l-2.437-2.437a4.22,4.22,0,0,0,6.017,4.952l5.783,6.746a.857.857,0,0,0,1.273.049l1.487-1.487a.857.857,0,0,0-.049-1.273Z"/><path class="cls-8" d="M206.27,442.2l-9.108-8.292.424-.425a1.944,1.944,0,0,0,.563-1.255c.017-.008.033-.015.049-.024l1.71-1.069a.719.719,0,0,0-.038-.955L196.9,427.2a.714.714,0,0,0-.952-.038l-1.066,1.714c-.009.016-.016.033-.024.049a1.934,1.934,0,0,0-1.252.565l-1.617,1.622a1.944,1.944,0,0,0-.563,1.255c-.017.007-.033.015-.049.024l-1.71,1.069a.719.719,0,0,0,.038.955l2.974,2.982a.715.715,0,0,0,.952.038l1.066-1.714c.009-.016.016-.033.024-.049a1.933,1.933,0,0,0,1.252-.565l.47-.471,8.27,9.133a.57.57,0,0,0,.821.095l.836-.838a.574.574,0,0,0-.095-.824Z"/><path class="cls-7" d="M198,459a8.96,8.96,0,0,0-8,5,8.9,8.9,0,0,0,16,0A8.961,8.961,0,0,0,198,459Zm3.945,2.652A7.618,7.618,0,0,1,204.279,464a7.6,7.6,0,0,1-2.334,2.348,7.328,7.328,0,0,1-7.889,0A7.6,7.6,0,0,1,191.721,464a7.593,7.593,0,0,1,2.335-2.348c.061-.039.123-.077.185-.114a4,4,0,1,0,7.518,0c.062.037.124.075.185.114h0ZM198,462.5a1.5,1.5,0,1,1-1.5-1.5A1.5,1.5,0,0,1,198,462.5Z"/><path class="cls-8" d="M205,488H189a1,1,0,0,0-1,1v3a1,1,0,0,0,1,1h1v9a1,1,0,0,0,1,1h14a1,1,0,0,0,1-1V489A1,1,0,0,0,205,488Zm-2,2-1.529,2L200,490Zm1,11H192v-2h12Zm0-3H192v-2h12Zm0-3H192v-2h12Z"/><path class="cls-8" d="M193,521a1,1,0,0,1,1-1,1,1,0,0,0,0-2,3,3,0,0,0-3,3v2.5a.5.5,0,0,1-.5.5H190a1,1,0,1,0,0,2h.5a.5.5,0,0,1,.5.5V529a3,3,0,0,0,3,3,1,1,0,0,0,0-2,1,1,0,0,1-1-1v-2.5a2.494,2.494,0,0,1,0-3Z"/><path class="cls-8" d="M206,524h-.5a.5.5,0,0,1-.5-.5V521a3,3,0,0,0-3-3,1,1,0,0,0,0,2,1,1,0,0,1,1,1v2.5a2.495,2.495,0,0,1,0,3V529a1,1,0,0,1-1,1,1,1,0,0,0,0,2,3,3,0,0,0,3-3v-2.5a.5.5,0,0,1,.5-.5h.5a1,1,0,1,0,0-2Z"/><rect class="cls-7" x="192" y="17" width="12" height="1"/><rect class="cls-7" x="192" y="14" width="12" height="1"/><rect class="cls-7" x="192" y="11" width="12" height="1"/><polygon class="cls-7" points="208.314 41 207.623 41.656 210.618 44.5 207.623 47.344 208.314 48 212 44.5 208.314 41"/><rect class="cls-7" x="192" y="47" width="12" height="1"/><rect class="cls-7" x="192" y="44" width="12" height="1"/><rect class="cls-7" x="192" y="41" width="12" height="1"/><rect class="cls-7" x="192" y="77" width="12" height="1"/><rect class="cls-7" x="192" y="74" width="12" height="1"/><rect class="cls-7" x="192" y="71" width="12" height="1"/><polygon class="cls-7" points="188.377 101.656 187.686 101 184 104.5 187.686 108 188.377 107.344 185.382 104.5 188.377 101.656"/><polygon class="cls-7" points="208.314 131 207.623 131.656 210.618 134.5 207.623 137.344 208.314 138 212 134.5 208.314 131"/><path class="cls-9" d="M164.928,163.224a14.932,14.932,0,0,0-.832-3.931,10.686,10.686,0,0,0-9.193-7.239c-.267-.03-.534-.046-.8-.053-.068,0-.136,0-.2,0-.267.007-.534.023-.8.053a10.686,10.686,0,0,0-9.194,7.239,14.932,14.932,0,0,0-.832,3.931,13.577,13.577,0,0,0,.25,4.384,12.893,12.893,0,0,0,7.7,8.784,7.609,7.609,0,0,0,5.963,0,12.894,12.894,0,0,0,7.7-8.787A13.579,13.579,0,0,0,164.928,163.224Zm-2.177,3.848a10.82,10.82,0,0,1-6.534,7.472,5.611,5.611,0,0,1-4.434,0,10.819,10.819,0,0,1-6.533-7.47,11.672,11.672,0,0,1-.188-3.642,13.01,13.01,0,0,1,.717-3.443,8.77,8.77,0,0,1,7.541-5.947c.21-.023.42-.036.63-.042h.1c.21.005.42.018.631.042a8.77,8.77,0,0,1,7.54,5.947,13.01,13.01,0,0,1,.717,3.443A11.676,11.676,0,0,1,162.751,167.072Z"/><path class="cls-9" d="M161,216h-.417A5.007,5.007,0,0,0,156,213h-4a5.007,5.007,0,0,0-4.583,3H147a6.007,6.007,0,0,0-6,6v8a6.007,6.007,0,0,0,6,6h14a6.007,6.007,0,0,0,6-6v-8A6.007,6.007,0,0,0,161,216Zm4,14a4,4,0,0,1-4,4H147a4,4,0,0,1-4-4v-8a4,4,0,0,1,4-4h2a3,3,0,0,1,3-3h4a3,3,0,0,1,3,3h2a4,4,0,0,1,4,4Z"/><path class="cls-9" d="M154,243a12,12,0,1,0,12,12A12.014,12.014,0,0,0,154,243Zm0,22a10,10,0,1,1,10-10A10.011,10.011,0,0,1,154,265Z"/><path class="cls-9" d="M165.323,284.112a3.978,3.978,0,0,0,.661-2.2V280a4,4,0,0,0-4-4,11.147,11.147,0,0,0-5.793,1.62,3.982,3.982,0,0,0-3.2-1.62A10.853,10.853,0,0,0,142,286.682c0,.044,0,.087,0,.131l.014.425a7.431,7.431,0,0,0,7.5,7.263,7.551,7.551,0,0,0,4.5-1.48,7.551,7.551,0,0,0,4.5,1.48,7.428,7.428,0,0,0,7.5-7.341A7.169,7.169,0,0,0,165.323,284.112ZM158.5,292.5a5.539,5.539,0,0,1-4.5-2.277,5.539,5.539,0,0,1-4.5,2.277,5.426,5.426,0,0,1-5.5-5.341l-.015-.412A8.862,8.862,0,0,1,152.993,278a2,2,0,0,1,2,2v1.245A9.071,9.071,0,0,1,161.984,278a2,2,0,0,1,2,2v1.909a2,2,0,0,1-1.244,1.852,5.228,5.228,0,0,1,1.259,3.4A5.426,5.426,0,0,1,158.5,292.5Z"/><path class="cls-9" d="M164.772,311.67a4.431,4.431,0,0,0-4.212-3.031h-1.812l-.535-1.6a4.44,4.44,0,0,0-8.422-.008l-.538,1.61h-1.812a4.425,4.425,0,0,0-2.565,8.039l1.371.97-.512,1.533a4.4,4.4,0,0,0,1.646,5,4.456,4.456,0,0,0,5.133,0L154,323.132l1.464,1.035a4.414,4.414,0,0,0,2.589.833,4.472,4.472,0,0,0,2.61-.846,4.4,4.4,0,0,0,1.6-4.98l-.509-1.526,1.366-.966A4.392,4.392,0,0,0,164.772,311.67Zm-2.8,3.377-2.581,1.825.979,2.935a2.413,2.413,0,0,1-.878,2.729,2.459,2.459,0,0,1-1.435.464,2.428,2.428,0,0,1-1.423-.457L154,320.682l-2.643,1.869a2.448,2.448,0,0,1-2.824,0,2.411,2.411,0,0,1-.9-2.74l.98-2.938-2.583-1.827a2.407,2.407,0,0,1-.9-2.743,2.434,2.434,0,0,1,2.313-1.663h3.253l.994-2.978a2.44,2.44,0,0,1,4.626,0l.992,2.973h3.253a2.434,2.434,0,0,1,2.313,1.659A2.406,2.406,0,0,1,161.971,315.047Z"/><path class="cls-9" d="M162.281,346.209l-2.869-9.463A5.106,5.106,0,0,0,154.656,333h-1.312a5.1,5.1,0,0,0-4.752,3.732l-2.873,9.477A4,4,0,0,0,143,350v2a4,4,0,0,0,4,4h14a4,4,0,0,0,4-4v-2A4,4,0,0,0,162.281,346.209ZM163,352a2,2,0,0,1-2,2H147a2,2,0,0,1-2-2v-2a2,2,0,0,1,2-2h.267l3.239-10.687A3.1,3.1,0,0,1,153.344,335h1.313a3.1,3.1,0,0,1,2.84,2.319L160.733,348H161a2,2,0,0,1,2,2Z"/><path class="cls-9" d="M165.953,373.534a4.465,4.465,0,0,0-.519-2.719l-2.5-4.5A4.5,4.5,0,0,0,159,364h-2A4.991,4.991,0,0,0,151,364h-2a4.5,4.5,0,0,0-3.934,2.314l-2.5,4.5a4.456,4.456,0,0,0-.517,2.717A3.934,3.934,0,0,0,142,374v.5a5.5,5.5,0,0,0,4.6,5.419A3.979,3.979,0,0,0,146,382v1a4,4,0,0,0,4,4h8a4,4,0,0,0,4-4v-1a3.979,3.979,0,0,0-.6-2.081A5.5,5.5,0,0,0,166,374.5V374A3.941,3.941,0,0,0,165.953,373.534ZM164,374.5a3.5,3.5,0,0,1-3.5,3.5h-3a3.455,3.455,0,0,1-.5-.051v1.609l1.632.544A2,2,0,0,1,160,382v1a2,2,0,0,1-2,2h-8a2,2,0,0,1-2-2v-1a2,2,0,0,1,1.368-1.9l1.632-.544v-1.609a3.455,3.455,0,0,1-.5.051h-3a3.5,3.5,0,0,1-3.5-3.5V374a1.984,1.984,0,0,1,.066-.486,2.478,2.478,0,0,1,.248-1.727l2.5-4.5A2.5,2.5,0,0,1,149,366h2.766a3,3,0,0,1,4.469,0H159a2.5,2.5,0,0,1,2.186,1.285l2.5,4.5a2.484,2.484,0,0,1,.248,1.729A1.984,1.984,0,0,1,164,374Z"/><path class="cls-9" d="M163.8,405.944h0l-4.875-4.179c.012-.182.019-.363.019-.546a8.222,8.222,0,0,0-10.6-7.867,4,4,0,0,0-2.7,2.781,4,4,0,0,0-2.78,2.7,8.222,8.222,0,0,0,7.865,10.606c.182,0,.364-.006.546-.019l4.178,4.875a4.886,4.886,0,0,0,3.509,1.7c.062,0,.123,0,.184,0a4.889,4.889,0,0,0,3.446-1.431l1.489-1.489a4.857,4.857,0,0,0-.275-7.136Zm-1.141,5.723-1.488,1.487a2.881,2.881,0,0,1-2.031.846l-.108,0a2.881,2.881,0,0,1-2.067-1.006l-4.889-5.7a6.22,6.22,0,0,1-7.3-7.876,2,2,0,0,1,3.17-.976,2,2,0,0,1,.978-3.17,6.218,6.218,0,0,1,7.873,7.306l5.7,4.89h0a2.856,2.856,0,0,1,.162,4.2Z"/><path class="cls-9" d="M164.962,439.244l-6.029-5.489.024-.027a4.731,4.731,0,0,0-.254-6.368l-2.972-2.981a4.722,4.722,0,0,0-6.383-.257,4,4,0,0,0-.8.929l-.349.562a5.9,5.9,0,0,0-1.429,1.057l-1.618,1.622a5.929,5.929,0,0,0-1.052,1.432l-.559.349a4,4,0,0,0-.927.8,4.735,4.735,0,0,0,.254,6.37l2.972,2.979a4.724,4.724,0,0,0,6.381.259l.063-.055,5.457,6.026A4.685,4.685,0,0,0,161.083,448l.107,0a4.491,4.491,0,0,0,3.17-1.311l.839-.841a4.5,4.5,0,0,0,1.3-3.272A4.689,4.689,0,0,0,164.962,439.244Zm-1.179,5.193-.837.839a2.446,2.446,0,0,1-1.751.724h-.062a2.675,2.675,0,0,1-1.907-.889l-7.036-7.77c-.065.028-.132.056-.2.081l-.665,1.071a2.009,2.009,0,0,1-.4.466,2.715,2.715,0,0,1-3.666-.149l-2.973-2.98a2.722,2.722,0,0,1-.146-3.662,2,2,0,0,1,.464-.4l1.068-.669a3.933,3.933,0,0,1,.9-1.4l1.618-1.622a3.912,3.912,0,0,1,1.394-.9l.667-1.072a1.994,1.994,0,0,1,.4-.464,2.711,2.711,0,0,1,3.667.147l2.973,2.981a2.72,2.72,0,0,1,.146,3.661,2,2,0,0,1-.464.4l-1.068.668c-.018.049-.038.1-.058.146l7.774,7.078a2.679,2.679,0,0,1,.883,1.9A2.458,2.458,0,0,1,163.783,444.438Z"/><path class="cls-9" d="M165.577,462.209a12.9,12.9,0,0,0-23.153,0,4,4,0,0,0,0,3.582,12.9,12.9,0,0,0,23.153,0A4,4,0,0,0,165.577,462.209Zm-1.789,2.687a10.9,10.9,0,0,1-19.577,0,2,2,0,0,1,0-1.791,10.9,10.9,0,0,1,19.577,0A2,2,0,0,1,163.788,464.9Z"/><path class="cls-9" d="M161,484H145a5.005,5.005,0,0,0-5,5v3a5,5,0,0,0,2,4v6a5.005,5.005,0,0,0,5,5h14a5.005,5.005,0,0,0,5-5V489A5.005,5.005,0,0,0,161,484Zm3,18a3,3,0,0,1-3,3H147a3,3,0,0,1-3-3v-7.171A3.006,3.006,0,0,1,142,492v-3a3,3,0,0,1,3-3h16a3,3,0,0,1,3,3Z"/><path class="cls-9" d="M165,521v0a7.008,7.008,0,0,0-7-7,4.981,4.981,0,0,0-4,2.031A4.981,4.981,0,0,0,150,514a7.008,7.008,0,0,0-7,7v0a5,5,0,0,0,0,8v0a7.008,7.008,0,0,0,7,7,4.981,4.981,0,0,0,4-2.031A4.981,4.981,0,0,0,158,536a7.008,7.008,0,0,0,7-7v0a5,5,0,0,0,0-8Zm-15,13a5.006,5.006,0,0,1-5-5v-1.171a3,3,0,0,1,0-5.658V521a5.006,5.006,0,0,1,5-5,3,3,0,0,1,1,5.829V523.5a4.525,4.525,0,0,0,0,3v1.671A3,3,0,0,1,150,534Zm4-5.984A5.035,5.035,0,0,0,153,527v-.5a6.577,6.577,0,0,1,0-3V523a5.035,5.035,0,0,0,1-1.014A5.035,5.035,0,0,0,155,523v.5a6.577,6.577,0,0,1,0,3v.5A5.035,5.035,0,0,0,154,528.016Zm9-.187V529a5.006,5.006,0,0,1-5,5,3,3,0,0,1-1-5.829V526.5a4.525,4.525,0,0,0,0-3v-1.671A3,3,0,0,1,158,516a5.006,5.006,0,0,1,5,5v1.171a3,3,0,0,1,0,5.658Z"/><path class="cls-9" d="M164,71a4,4,0,0,0-4-4H148a4,4,0,0,0-4,4v1a3.966,3.966,0,0,0,.141,1A3.966,3.966,0,0,0,144,74v1a3.966,3.966,0,0,0,.141,1A3.966,3.966,0,0,0,144,77v1a4,4,0,0,0,4,4h12a4,4,0,0,0,4-4V77a3.966,3.966,0,0,0-.141-1A3.966,3.966,0,0,0,164,75V74a3.966,3.966,0,0,0-.141-1A3.966,3.966,0,0,0,164,72Zm-2,1a1.98,1.98,0,0,1-.277,1A1.98,1.98,0,0,1,162,74v1a1.98,1.98,0,0,1-.277,1A1.98,1.98,0,0,1,162,77v1a2,2,0,0,1-2,2H148a2,2,0,0,1-2-2V77a1.98,1.98,0,0,1,.277-1A1.98,1.98,0,0,1,146,75V74a1.98,1.98,0,0,1,.277-1A1.98,1.98,0,0,1,146,72V71a2,2,0,0,1,2-2h12a2,2,0,0,1,2,2Z"/><path class="cls-5" d="M160.95,163.64a11.092,11.092,0,0,0-.6-2.955,6.762,6.762,0,0,0-5.887-4.655c-.154-.017-.307-.026-.46-.03s-.306.013-.46.03a6.762,6.762,0,0,0-5.887,4.655,11.092,11.092,0,0,0-.6,2.955,9.852,9.852,0,0,0,.127,2.9,8.872,8.872,0,0,0,5.37,6.157,3.617,3.617,0,0,0,2.905,0,8.872,8.872,0,0,0,5.37-6.157A9.851,9.851,0,0,0,160.95,163.64Zm-12.163-2.962c.137-.515.5-.678,1.047-.677q2.083,0,4.166,0t4.166,0c.552,0,.91.162,1.047.677s.21,1.023.332,1.637a2.237,2.237,0,0,1-.619-.068,2.586,2.586,0,0,0-2.035-.09,8.056,8.056,0,0,1-5.784,0,2.586,2.586,0,0,0-2.035.09,2.238,2.238,0,0,1-.619.068C148.577,161.7,148.653,161.181,148.787,160.677Zm9.135,3.758a1.646,1.646,0,0,1-2.738.028A1.635,1.635,0,0,1,157.922,164.435Zm-5.106.028a1.646,1.646,0,0,1-2.738-.028A1.635,1.635,0,0,1,152.816,164.463Zm6.8,1.867a7.2,7.2,0,0,1-4.579,5.179,2.916,2.916,0,0,1-2.077,0,7.2,7.2,0,0,1-4.579-5.179.6.6,0,0,1,.065-.457c.1.12.208.24.314.36a3.774,3.774,0,0,0,2.688,1.251,1.558,1.558,0,0,0,1.339-.6c.209-.244.4-.5.631-.728a.7.7,0,0,1,1.164,0c.226.227.422.484.631.728a1.558,1.558,0,0,0,1.339.6,3.774,3.774,0,0,0,2.688-1.251c.105-.119.209-.24.314-.36A.6.6,0,0,1,159.617,166.331Z"/><path class="cls-6" d="M161,220h-4v-2a1,1,0,0,0-1-1h-4a1,1,0,0,0-1,1v2h-4a2.006,2.006,0,0,0-2,2v8a2.006,2.006,0,0,0,2,2h14a2.006,2.006,0,0,0,2-2v-8A2.006,2.006,0,0,0,161,220Zm-9-2h4v2h-4Zm6,9h-3v3h-2v-3h-3v-2h3v-3h2v3h3Z"/><path class="cls-6" d="M154,247a8,8,0,1,0,8,8A8.009,8.009,0,0,0,154,247Zm0,14.222A6.222,6.222,0,1,1,160.222,255,6.229,6.229,0,0,1,154,261.222Z"/><path class="cls-6" d="M154,250.556A4.444,4.444,0,1,0,158.444,255,4.45,4.45,0,0,0,154,250.556Zm0,7.111A2.667,2.667,0,1,1,156.667,255,2.67,2.67,0,0,1,154,257.667Z"/><circle class="cls-5" cx="154" cy="255" r="1"/><path class="cls-6" d="M149.512,283.818a3.682,3.682,0,0,0-.548.041,4.914,4.914,0,0,1,.5-.552,5.082,5.082,0,0,1,3.532-1.4V280A6.843,6.843,0,0,0,146,286.682l.016.477a3.5,3.5,0,1,0,3.5-3.341Z"/><path class="cls-6" d="M158.5,283.818a3.683,3.683,0,0,0-.548.041,4.909,4.909,0,0,1,.5-.552,5.082,5.082,0,0,1,3.532-1.4V280a6.843,6.843,0,0,0-6.993,6.682l.016.477a3.5,3.5,0,1,0,3.5-3.341Z"/><path class="cls-5" d="M160.978,312.935a.438.438,0,0,0-.417-.3h-4.694l-1.45-4.344a.44.44,0,0,0-.831,0l-1.45,4.344h-4.694a.437.437,0,0,0-.416.3.422.422,0,0,0,.16.478l3.8,2.684-1.449,4.343a.423.423,0,0,0,.158.478.447.447,0,0,0,.515,0l3.8-2.685,3.8,2.685a.442.442,0,0,0,.256.082.451.451,0,0,0,.259-.082.423.423,0,0,0,.157-.478l-1.449-4.343,3.8-2.684a.424.424,0,0,0,.161-.478Z"/><path class="cls-6" d="M159.25,350l-3.67-12.107c-.147-.491-.563-.893-.924-.893h-1.312c-.361,0-.777.4-.924.893L148.75,350H147v2h14v-2Zm-6.487-10.187h2.474l.563,1.875h-3.6Zm-1.125,3.75h4.724l.562,1.875h-5.849Zm-1.688,5.625.562-1.875h6.974l.562,1.875Z"/><path class="cls-6" d="M152,374.5V374h-6v.5a1.5,1.5,0,0,0,1.5,1.5h3A1.5,1.5,0,0,0,152,374.5Z"/><path class="cls-6" d="M156,374v.5a1.5,1.5,0,0,0,1.5,1.5h3a1.5,1.5,0,0,0,1.5-1.5V374Z"/><path class="cls-6" d="M155,369h3.15l-2.087,3.757a.5.5,0,0,0,.874.486L159,369.53l2.063,3.713a.5.5,0,0,0,.874-.486l-2.5-4.5A.5.5,0,0,0,159,368h-4a1,1,0,0,0-2,0h-4a.5.5,0,0,0-.437.257l-2.5,4.5a.5.5,0,0,0,.874.486L149,369.53l2.063,3.713a.5.5,0,0,0,.874-.486L149.85,369H153v12l-3,1v1h8v-1l-3-1Z"/><path class="cls-6" d="M161.191,408.981l-6.746-5.783a4.221,4.221,0,0,0-4.952-6.017l2.437,2.437a.94.94,0,0,1,0,1.326l-1.487,1.487a.94.94,0,0,1-1.326,0l-2.437-2.437a4.22,4.22,0,0,0,6.017,4.952l5.783,6.746a.857.857,0,0,0,1.273.049l1.487-1.487a.857.857,0,0,0-.049-1.273Z"/><path class="cls-6" d="M162.27,442.2l-9.108-8.292.424-.425a1.944,1.944,0,0,0,.563-1.255c.017-.008.033-.015.049-.024l1.71-1.069a.719.719,0,0,0-.038-.955L152.9,427.2a.714.714,0,0,0-.952-.038l-1.066,1.714c-.009.016-.016.033-.024.049a1.934,1.934,0,0,0-1.252.565l-1.617,1.622a1.944,1.944,0,0,0-.563,1.255c-.017.007-.033.015-.049.024l-1.71,1.069a.719.719,0,0,0,.038.955l2.974,2.982a.715.715,0,0,0,.952.038l1.066-1.714c.009-.016.016-.033.024-.049a1.933,1.933,0,0,0,1.252-.565l.47-.471,8.27,9.133a.57.57,0,0,0,.821.095l.836-.838a.574.574,0,0,0-.095-.824Z"/><path class="cls-5" d="M154,459a8.96,8.96,0,0,0-8,5,8.9,8.9,0,0,0,16,0A8.961,8.961,0,0,0,154,459Zm3.945,2.652A7.618,7.618,0,0,1,160.279,464a7.6,7.6,0,0,1-2.334,2.348,7.328,7.328,0,0,1-7.889,0A7.6,7.6,0,0,1,147.721,464a7.593,7.593,0,0,1,2.335-2.348c.061-.039.123-.077.185-.114a4,4,0,1,0,7.518,0c.062.037.124.075.185.114h0ZM154,462.5a1.5,1.5,0,1,1-1.5-1.5A1.5,1.5,0,0,1,154,462.5Z"/><path class="cls-6" d="M161,488H145a1,1,0,0,0-1,1v3a1,1,0,0,0,1,1h1v9a1,1,0,0,0,1,1h14a1,1,0,0,0,1-1V489A1,1,0,0,0,161,488Zm-2,2-1.529,2L156,490Zm1,11H148v-2h12Zm0-3H148v-2h12Zm0-3H148v-2h12Z"/><path class="cls-6" d="M149,521a1,1,0,0,1,1-1,1,1,0,0,0,0-2,3,3,0,0,0-3,3v2.5a.5.5,0,0,1-.5.5H146a1,1,0,1,0,0,2h.5a.5.5,0,0,1,.5.5V529a3,3,0,0,0,3,3,1,1,0,0,0,0-2,1,1,0,0,1-1-1v-2.5a2.494,2.494,0,0,1,0-3Z"/><path class="cls-6" d="M162,524h-.5a.5.5,0,0,1-.5-.5V521a3,3,0,0,0-3-3,1,1,0,0,0,0,2,1,1,0,0,1,1,1v2.5a2.495,2.495,0,0,1,0,3V529a1,1,0,0,1-1,1,1,1,0,0,0,0,2,3,3,0,0,0,3-3v-2.5a.5.5,0,0,1,.5-.5h.5a1,1,0,1,0,0-2Z"/><rect class="cls-5" x="148" y="77" width="12" height="1"/><rect class="cls-5" x="148" y="74" width="12" height="1"/><rect class="cls-5" x="148" y="71" width="12" height="1"/><g class="cls-10"><path class="cls-11" d="M153.239,200.443l.662,1.9a2.026,2.026,0,0,1,.1.437,2.026,2.026,0,0,1,.1-.437l.662-1.9-.761-.515Z"/><path class="cls-11" d="M167.824,196.406A4,4,0,0,0,164,193.578h-.941l-.233-.668a3.98,3.98,0,0,0-.655-1.185,4,4,0,0,0-3.219-6.375h-.941l-.233-.667A4,4,0,0,0,154,182h0a4,4,0,0,0-3.776,2.68l-.234.671h-.943a4,4,0,0,0-3.218,6.377,3.987,3.987,0,0,0-.653,1.18l-.235.671H144a4,4,0,0,0-2.242,7.313l.512.347-.155.446a4,4,0,0,0,6.019,4.629l.818-.554.817.554a4,4,0,0,0,4.23.159,4,4,0,0,0,4.23-.159l.817-.554.817.554a4,4,0,0,0,6.02-4.629l-.155-.446.513-.347A4,4,0,0,0,167.824,196.406Zm-2.7,2.829-1.786,1.209.662,1.9a2,2,0,0,1-3.01,2.314l-1.939-1.313-1.939,1.313A2,2,0,0,1,154,203.221a2,2,0,0,1-3.109,1.435l-1.939-1.313-1.939,1.313a2,2,0,0,1-3.01-2.315l.662-1.9-1.786-1.209A2,2,0,0,1,144,195.578h2.362l.7-2.011a2,2,0,0,1,1.888-1.34h0a2,2,0,0,1,.71.13l.049-.142-1.787-1.209a2,2,0,0,1,1.121-3.656h2.362l.7-2.011A2,2,0,0,1,154,184h0a2,2,0,0,1,1.888,1.341l.7,2.009h2.362a2,2,0,0,1,1.121,3.656l-1.787,1.209.05.143a1.991,1.991,0,0,1,.713-.131h0a2,2,0,0,1,1.888,1.341l.7,2.01H164a2,2,0,0,1,1.121,3.656Z"/></g><path class="cls-5" d="M150.121,197.578l-1.168-3.351-1.171,3.351H144l3.06,2.072L145.892,203l3.06-2.072,3.06,2.072-1.168-3.35,3.06-2.072Zm5.77-6.156,3.06-2.071H155.17L154,186l-1.171,3.351h-3.782l3.06,2.071-1.168,3.351L154,192.7l3.06,2.071ZM164,197.578h-3.782l-1.168-3.351-1.171,3.351H154.1l3.06,2.072L155.988,203l3.06-2.072,3.06,2.072-1.168-3.35Z"/><g class="cls-10"><path class="cls-11" d="M164,11a4,4,0,0,0-4-4H148a3.972,3.972,0,0,0-2.152.637,4,4,0,0,0-4.917.462l-3.686,3.5a4,4,0,0,0,0,5.8l3.686,3.5a3.995,3.995,0,0,0,4.917.462A3.972,3.972,0,0,0,148,22h12a4,4,0,0,0,4-4V17a3.966,3.966,0,0,0-.141-1A3.966,3.966,0,0,0,164,15V14a3.966,3.966,0,0,0-.141-1A3.966,3.966,0,0,0,164,12Zm-2,1a1.98,1.98,0,0,1-.277,1A1.98,1.98,0,0,1,162,14v1a1.98,1.98,0,0,1-.277,1A1.98,1.98,0,0,1,162,17v1a2,2,0,0,1-2,2H148a2,2,0,0,1-1.951-1.569,1.988,1.988,0,0,1-.295.363l-.691.656a2,2,0,0,1-2.754,0l-3.686-3.5a2,2,0,0,1,0-2.9l3.686-3.5a2,2,0,0,1,2.754,0l.691.656a1.988,1.988,0,0,1,.295.363A2,2,0,0,1,148,9h12a2,2,0,0,1,2,2Z"/></g><g class="cls-10"><path class="cls-11" d="M170.754,41.6l-3.686-3.5a4,4,0,0,0-4.917-.462A3.972,3.972,0,0,0,160,37H148a4,4,0,0,0-4,4v1a3.966,3.966,0,0,0,.141,1A3.966,3.966,0,0,0,144,44v1a3.966,3.966,0,0,0,.141,1A3.966,3.966,0,0,0,144,47v1a4,4,0,0,0,4,4h12a3.972,3.972,0,0,0,2.152-.637,3.995,3.995,0,0,0,4.917-.462l3.686-3.5a4,4,0,0,0,0-5.8Zm-1.377,4.351-3.686,3.5a2,2,0,0,1-2.754,0l-.691-.656a1.988,1.988,0,0,1-.295-.363A2,2,0,0,1,160,50H148a2,2,0,0,1-2-2V47a1.98,1.98,0,0,1,.277-1A1.98,1.98,0,0,1,146,45V44a1.98,1.98,0,0,1,.277-1A1.98,1.98,0,0,1,146,42V41a2,2,0,0,1,2-2h12a2,2,0,0,1,1.951,1.569,1.988,1.988,0,0,1,.295-.363l.691-.656a2,2,0,0,1,2.754,0l3.686,3.5a2,2,0,0,1,0,2.9Z"/></g><path class="cls-9" d="M148.377,101.656a4,4,0,0,0-1.245-2.9l-.691-.656a4,4,0,0,0-5.509,0l-3.686,3.5a4,4,0,0,0,0,5.8l3.686,3.5a4,4,0,0,0,5.509,0l.691-.656a4,4,0,0,0,.058-5.744A4,4,0,0,0,148.377,101.656Zm-2.623,4.237a2,2,0,0,1,0,2.9l-.691.656a2,2,0,0,1-2.754,0l-3.686-3.5a2,2,0,0,1,0-2.9l3.686-3.5a2,2,0,0,1,2.754,0l.691.656a2,2,0,0,1,0,2.9l-1.468,1.394Z"/><path class="cls-9" d="M170.754,131.6l-3.686-3.5a4,4,0,0,0-5.509,0l-.691.656a4,4,0,0,0-.058,5.744,4,4,0,0,0,.058,5.744l.691.656a4,4,0,0,0,5.509,0l3.686-3.5a4,4,0,0,0,0-5.8Zm-1.377,4.351-3.686,3.5a2,2,0,0,1-2.754,0l-.691-.656a2,2,0,0,1,0-2.9l1.468-1.394-1.468-1.394a2,2,0,0,1,0-2.9l.691-.656a2,2,0,0,1,2.754,0l3.686,3.5a2,2,0,0,1,0,2.9Z"/><polygon class="cls-5" points="144.377 11.656 143.686 11 140 14.5 143.686 18 144.377 17.344 141.382 14.5 144.377 11.656"/><rect class="cls-5" x="148" y="17" width="12" height="1"/><rect class="cls-5" x="148" y="14" width="12" height="1"/><rect class="cls-5" x="148" y="11" width="12" height="1"/><polygon class="cls-5" points="164.314 41 163.623 41.656 166.618 44.5 163.623 47.344 164.314 48 168 44.5 164.314 41"/><rect class="cls-5" x="148" y="47" width="12" height="1"/><rect class="cls-5" x="148" y="44" width="12" height="1"/><rect class="cls-5" x="148" y="41" width="12" height="1"/><polygon class="cls-5" points="144.377 101.656 143.686 101 140 104.5 143.686 108 144.377 107.344 141.382 104.5 144.377 101.656"/><polygon class="cls-5" points="164.314 131 163.623 131.656 166.618 134.5 163.623 137.344 164.314 138 168 134.5 164.314 131"/></svg>