<?xml version="1.0" encoding="utf-8"?>
<!-- Generated by IcoMoon.io -->
<!DOCTYPE svg PUBLIC "-//W3C//DTD SVG 1.1//EN" "http://www.w3.org/Graphics/SVG/1.1/DTD/svg11.dtd">
<svg version="1.1" xmlns="http://www.w3.org/2000/svg" xmlns:xlink="http://www.w3.org/1999/xlink" width="16" height="16" viewBox="0 0 16 16">
<path fill="#000000" d="M12.729 9.223l-4.229-1.586c-0.919-0.345-1.179-0.682-1.312-0.967-0.187-0.401-0.187-0.906-0.187-1.67v-4.5c0-0.276-0.224-0.5-0.5-0.5h-6c-0.276 0-0.5 0.224-0.5 0.5v9c0 1.451 0.913 2.768 2.271 3.277l8 3c0.396 0.149 0.809 0.224 1.228 0.224 1.451-0 2.768-0.913 3.278-2.272 0.678-1.807-0.241-3.828-2.048-4.506zM5 1h1v1h-1v-1zM3 1h1v1h-1v-1zM1 1h1v1h-1v-1zM4.803 12.659c0.127-0.363 0.197-0.752 0.197-1.159 0-1.933-1.567-3.5-3.5-3.5-0.17 0-0.337 0.012-0.5 0.036v-5.036h5v2c0 0.833 0 1.491 0.281 2.093 0.305 0.654 0.881 1.11 1.867 1.48l4.229 1.586c0.342 0.128 0.639 0.325 0.883 0.567-1.321 0.5-2.261 1.777-2.261 3.274 0 0.338 0.048 0.665 0.138 0.974-0.175-0.026-0.347-0.070-0.515-0.133l-5.819-2.182z"></path>
</svg>
